<svg width="74" height="74" viewBox="0 0 74 74" fill="none" xmlns="http://www.w3.org/2000/svg">
<path d="M38.374 25.0574L44.2808 18.4557H3.97553C0.639908 18.4557 0.0376544 21.2354 0.15348 22.6252C0.0376604 37.566 -0.124487 68.0034 0.15348 70.2271C0.431447 72.4508 2.81733 73.47 3.97553 73.7017C25.0547 73.8175 67.769 73.9797 69.9927 73.7017C72.2165 73.4237 73.2357 71.2695 73.4673 70.2271V21.5828C73.4673 18.8032 71.1509 18.3399 69.9927 18.4557H58.874L68.2554 9.76924L64.0859 5.59973L38.374 30.9642V36.1761L43.5858 34.0914L52.9672 25.0574H67.2131V67.4474H16.4841V25.0574H38.374Z" fill="#DDDDDD"/>
<circle cx="7.5" cy="47.5" r="3.5" fill="#444444"/>
<path d="M69.2979 8.37939L65.4758 4.55734C66.5182 3.16751 69.2058 0.827362 69.6453 0.387853C69.9928 0.0403886 70.8397 -0.068196 71.3826 0.040383C72.425 0.248855 73.4674 1.43021 73.8148 2.47259C74.0605 3.20966 74.1623 3.51498 73.4674 4.2099L69.2979 8.37939Z" fill="#DDDDDD"/>
</svg>
