<svg width="42" height="42" viewBox="0 0 42 42" fill="none" xmlns="http://www.w3.org/2000/svg">
<circle cx="21" cy="21" r="20.5" stroke="black"/>
<path d="M21.7071 8.29289C21.3166 7.90237 20.6834 7.90237 20.2929 8.29289L13.9289 14.6569C13.5384 15.0474 13.5384 15.6805 13.9289 16.0711C14.3195 16.4616 14.9526 16.4616 15.3431 16.0711L21 10.4142L26.6569 16.0711C27.0474 16.4616 27.6805 16.4616 28.0711 16.0711C28.4616 15.6805 28.4616 15.0474 28.0711 14.6569L21.7071 8.29289ZM20 33C20 33.5523 20.4477 34 21 34C21.5523 34 22 33.5523 22 33H20ZM20 9V33H22V9H20Z" fill="black"/>
</svg>
